├⌐ΓÇÜΓÇ₧├º┬Å┬á├ª┬á┬╝├ª┬á┬╝ (├¿┬┐╦£├º┬Å┬á├ª┬á┬╝├ª┬á┬╝) / Huan Chu Ko Ko (Huan Zhu Ge Ge)
AKA
Princess Returning Pearl / My Fair Princess / Princess Pearl 

D-Addicts:

Spoken: Mandarin
Subs (hardcoded): English, by HZGG team

24 Episodes, Season 1

Video (.avi)
ID                               : 0
Format                           : MPEG-4 Visual
Format profile                   : Simple@L3
Format settings, BVOP            : 2
Format settings, QPel            : No
Format settings, GMC             : No warppoints
Format settings, Matrix          : Default (H.263)
Muxing mode                      : Packed bitstream
Codec ID                         : XVID
Codec ID/Hint                    : XviD
Duration                         : 47mn 6s
Bit rate                         : 1 436 Kbps
Width                            : 640 pixels
Height                           : 480 pixels
Display aspect ratio             : 4:3
Frame rate                       : 23.976 fps
Color space                      : YUV
Chroma subsampling               : 4:2:0
Bit depth                        : 8 bits
Scan type                        : Progressive
Compression mode                 : Lossy
Bits/(Pixel*Frame)               : 0.195
Stream size                      : 484 MiB (88%)
Writing library                  : XviD 1.1.0 Beta2 (UTC 2005-04-04)

Audio
ID                               : 1
Format                           : AC-3
Format/Info                      : Audio Coding 3
Mode extension                   : CM (complete main)
Codec ID                         : 2000
Duration                         : 47mn 6s
Bit rate mode                    : Constant
Bit rate                         : 192 Kbps
Channel(s)                       : 2 channels
Channel positions                : Front: L R
Sampling rate                    : 48.0 KHz
Bit depth                        : 16 bits
Compression mode                 : Lossy
Delay relative to video          : 433ms
Stream size                      : 64.7 MiB (12%)
Alignment                        : Split accross interleaves
Interleave, duration             : 42 ms (1.00 video frame)
Interleave, preload duration     : 500 ms
